<?xml version="1.0" encoding="UTF-8"?>
<svg width="100" height="100" viewBox="0 0 100 100" xmlns="http://www.w3.org/2000/svg">
  <circle cx="50" cy="50" r="45" fill="#4095E5" />
  <path d="M60 35h-5a5 5 0 0 0 0 10h5a5 5 0 0 0 0-10zm0 8h-5a3 3 0 0 1 0-6h5a3 3 0 0 1 0 6z" fill="white"/>
  <path d="M45 55h5a5 5 0 0 0 0-10h-5a5 5 0 0 0 0 10zm0-8h5a3 3 0 0 1 0 6h-5a3 3 0 0 1 0-6z" fill="white"/>
  <path d="M48 42h4v6h-4zm0 10h4v6h-4z" fill="white"/>
  <path d="M40 65h25a5 5 0 0 0 5-5V40a5 5 0 0 0-5-5H40a5 5 0 0 0-5 5v20a5 5 0 0 0 5 5zm0-25h25v20H40V40z" fill="white"/>
</svg> 