<?xml version="1.0" encoding="UTF-8"?>
<svg width="100" height="100" viewBox="0 0 100 100" xmlns="http://www.w3.org/2000/svg">
  <circle cx="50" cy="50" r="45" fill="#07C160" />
  <path d="M68 40c0-10-10-18-22-18s-22 8-22 18c0 9 10 17 22 17l3-1 3 2 2-5c-7-3-11-8-11-13h5c0 2 2 4 6 6 3 1 6 2 9 2 10 0 18-6 18-15z M42 36a3 3 0 1 0 0-6 3 3 0 0 0 0 6z M58 36a3 3 0 1 0 0-6 3 3 0 0 0 0 6z" fill="white"/>
  <path d="M57 55c-8 0-15 5-15 12 0 6 7 12 15 12 2 0 3 0 5-1l2 1 1-3c-4-2-7-5-7-9h4c0 2 4 5 10 5 7 0 13-5 13-11 0-7-6-12-13-12z M50 62a2 2 0 1 0 0-4 2 2 0 0 0 0 4z M63 62a2 2 0 1 0 0-4 2 2 0 0 0 0 4z" fill="white"/>
</svg> 